<?xml-stylesheet type="text/css" href="../components/Icons/Icons.css"?>
<svg class="icon" width="26" height="26" viewBox="0 0 26 26" fill="none" xmlns="http://www.w3.org/2000/svg">
<path d="M25.2203 15.8491L22.8305 13.9804C22.9045 13.3281 22.9045 12.6696 22.8305 12.0174L25.2224 10.1476C25.6707 9.78656 25.7905 9.15353 25.5052 8.65364L23.019 4.35609C22.7326 3.85305 22.1227 3.63337 21.5814 3.83827L18.7647 4.97145C18.2354 4.58745 17.6685 4.25823 17.0725 3.98889L16.6403 0.996719C16.5623 0.422283 16.0695 -0.00468384 15.4898 3.87955e-05H10.5065C9.93161 -0.00341432 9.44274 0.418779 9.3625 0.988035L8.92919 3.98884C8.3351 4.26077 7.76905 4.59024 7.2392 4.97252L4.41491 3.83716C3.87917 3.62596 3.26985 3.843 2.98816 4.34522L0.499739 8.65039C0.206784 9.15109 0.327389 9.79108 0.782488 10.1508L3.1723 12.0196C3.0975 12.6717 3.0975 13.3304 3.1723 13.9826L0.780305 15.8513C0.331299 16.2118 0.210948 16.8452 0.49649 17.3452L2.98166 21.6439C3.26766 22.1473 3.8779 22.3671 4.41922 22.1617L7.2359 21.0285C7.76564 21.4127 8.33297 21.7423 8.92914 22.0122L9.36246 25.0022C9.43873 25.5751 9.92851 26.0023 10.5065 25.9999H15.4897C16.0657 26.0046 16.5562 25.5822 16.637 25.0119L17.0703 22.0111C17.6643 21.7391 18.2304 21.4096 18.7603 21.0275L21.5878 22.1639C22.1235 22.3746 22.7325 22.1577 23.0145 21.6558L25.5105 17.3333C25.79 16.8342 25.6671 16.2062 25.2203 15.8491ZM12.9981 18.4166C10.0066 18.4166 7.58146 15.9915 7.58146 12.9999C7.58146 10.0084 10.0066 7.58327 12.9981 7.58327C15.9897 7.58327 18.4148 10.0084 18.4148 12.9999C18.4112 15.99 15.9882 18.413 12.9981 18.4166Z" fill="#575757"/>
</svg>